<?xml version="1.0" encoding="utf-8"?>
<svg version="1.1" xmlns:xlink="http://www.w3.org/1999/xlink" width="45px" height="50px" xmlns="http://www.w3.org/2000/svg">
  <g transform="matrix(1 0 0 1 -736 -535 )">
    <path d="M 6.943359375 41.73677884615385  C 7.314453125000001 41.35616987179487  7.5 40.905448717948715  7.5 40.38461538461539  C 7.5 39.86378205128205  7.314453125000001 39.413060897435905  6.943359375 39.03245192307692  C 6.572265625000001 38.65184294871795  6.132812500000001 38.46153846153846  5.625 38.46153846153846  C 5.117187500000001 38.46153846153846  4.677734375000001 38.65184294871795  4.306640625 39.03245192307692  C 3.935546875 39.413060897435905  3.75 39.86378205128205  3.75 40.38461538461539  C 3.75 40.905448717948715  3.935546875 41.35616987179487  4.306640625 41.73677884615385  C 4.677734375000001 42.11738782051282  5.117187500000001 42.30769230769231  5.625 42.30769230769231  C 6.132812500000001 42.30769230769231  6.572265625000001 42.11738782051282  6.943359375 41.73677884615385  Z M 40.6201171875 25.510817307692307  C 41.04003906250001 24.589342948717945  41.25 23.77804487179487  41.25 23.076923076923077  C 41.25 22.05528846153846  40.869140625 21.158854166666664  40.107421875 20.387620192307693  C 39.345703125 19.616386217948715  38.47656250000001 19.23076923076923  37.5 20  L 27.1875 20  C 27.1875 18.068910256410252  27.65625 16.471354166666664  28.59375 14.438100961538463  C 29.53125 12.404847756410254  30 10.797275641025639  30 9.615384615384615  C 30 7.652243589743585  29.6875 6.199919871794868  29.0625 5.2584134615384635  C 28.437500000000004 4.316907051282048  27.187500000000004 3.8461538461538436  25.3125 3.8461538461538436  C 24.8046875 4.366987179487175  24.43359375 5.218349358974356  24.19921875 6.400240384615385  C 23.96484375 7.58213141025641  23.6669921875 8.83914262820512  23.3056640625 10.171274038461537  C 22.944335937500004 11.503405448717945  22.363281250000004 12.600160256410254  21.5625 13.461538461538463  C 21.1328125 13.922275641025639  20.380859375000004 14.833733974358971  19.306640625 16.195913461538463  C 19.228515625000004 16.296073717948715  19.003906250000004 16.596554487179482  18.6328125 17.09735576923077  C 18.261718750000004 17.598157051282048  17.954101562500004 18.008814102564102  17.7099609375 18.329326923076923  C 17.465820312500004 18.64983974358974  17.128906250000004 19.075520833333332  16.69921875 19.606370192307693  C 16.26953125 20.137219551282048  15.87890625 20.577924679487175  15.52734375 20.928485576923077  C 15.17578125 21.27904647435897  14.7998046875 21.63461538461538  14.3994140625 21.995192307692307  C 13.999023437500002 22.35576923076923  13.6083984375 22.626201923076923  13.2275390625 22.806490384615387  C 12.846679687500002 22.986778846153843  12.500000000000004 23.076923076923077  12.1875 23.076923076923077  L 12 23.076923076923077  L 12 42.30769230769231  L 12.1875 42.30769230769231  C 12.441406250000002 42.30769230769231  12.749023437500002 42.33774038461539  13.1103515625 42.39783653846154  C 13.471679687500002 42.45793269230769  13.793945312500002 42.523036858974365  14.0771484375 42.59314903846154  C 14.360351562500002 42.663261217948715  14.7314453125 42.7734375  15.1904296875 42.92367788461539  C 15.649414062500002 43.073918269230774  15.991210937500002 43.18910256410256  16.2158203125 43.269230769230774  C 16.4404296875 43.34935897435898  16.787109375 43.474559294871796  17.255859375 43.644831730769226  C 17.724609375 43.81510416666667  18.007812500000004 43.92027243589744  18.10546875 43.96033653846153  C 22.226562500000004 45.422676282051285  25.566406250000004 46.15384615384615  28.125 46.15384615384615  L 31.669921875 46.15384615384615  C 35.419921875 46.15384615384615  37.294921875 44.48116987179487  37.294921875 41.13581730769231  C 37.294921875 40.61498397435898  37.24609375000001 40.05408653846154  37.1484375 39.453125  C 37.734375 39.13261217948718  38.1982421875 38.60677083333333  38.5400390625 37.87560096153846  C 38.8818359375 37.144431089743584  39.052734375 36.4082532051282  39.052734375 35.66706730769231  C 39.052734375 34.92588141025641  38.876953125 34.234775641025635  38.525390625 33.59375  C 39.560546875 32.59214743589743  40.078125 31.400240384615387  40.078125 30.018028846153843  C 40.078125 29.517227564102562  39.98046875 28.96133814102564  39.78515625 28.350360576923077  C 39.58984375000001 27.73938301282051  39.345703125 27.263621794871796  39.052734375 26.923076923076923  C 39.67773437500001 26.90304487179487  40.2001953125 26.432291666666664  40.6201171875 25.510817307692307  Z M 42.7734375 17.66826923076923  C 44.25781249999999 19.19070512820512  45 20.983573717948715  45 23.046875  C 45 24.829727564102562  44.52148437499999 26.46233974358974  43.564453125 27.94471153846154  C 43.740234375 28.60576923076923  43.828125 29.296875  43.828125 30.018028846153843  C 43.828125 31.560496794871796  43.45703125000001 33.00280448717948  42.71484375 34.34495192307692  C 42.7734375 34.765625  42.802734375 35.196314102564095  42.802734375 35.637019230769226  C 42.802734375 37.66025641025641  42.216796875 39.44310897435897  41.044921875 40.98557692307692  C 41.064453125 43.77003205128205  40.23437500000001 45.968549679487175  38.5546875 47.58112980769231  C 36.87500000000001 49.19370993589744  34.658203125 50  31.904296875 50  L 30.849609375 50  L 28.125 50  C 26.25 50  24.399414062500004 49.77463942307692  22.5732421875 49.323918269230774  C 20.7470703125 48.87319711538461  18.6328125 48.21714743589744  16.23046875 47.355769230769226  C 13.964843750000002 46.554487179487175  12.617187500000002 46.15384615384615  12.1875 46.15384615384615  L 3.75 46.15384615384615  C 2.71484375 46.15384615384615  1.8310546875000002 45.77824519230769  1.0986328125 45.027043269230774  C 0.3662109375 44.27584134615385  0 43.36939102564102  0 42.30769230769231  L 0 23.076923076923077  C 0 22.015224358974354  0.3662109375 21.108774038461537  1.0986328125 20.357572115384613  C 1.8310546875000002 19.606370192307693  2.71484375 19.23076923076923  3.75 19.23076923076923  L 11.77734375 19.23076923076923  C 12.480468750000002 18.75  13.818359375000004 17.197516025641026  15.791015625 14.573317307692307  C 16.923828125 13.070913461538463  17.96875 11.788862179487175  18.92578125 10.727163461538463  C 19.39453125 10.226362179487175  19.7412109375 9.369991987179482  19.9658203125 8.158052884615385  C 20.190429687500004 6.9461137820512775  20.48828125 5.6790865384615365  20.859375 4.356971153846157  C 21.23046875 3.034855769230771  21.8359375 1.953125  22.67578125 1.1117788461538436  C 23.4375 0.37059294871795156  24.31640625 0  25.3125 0  C 26.953125 0  28.427734375000007 0.32552083333333703  29.736328125 0.9765625  C 31.044921875 1.627604166666663  32.04101562500001 2.644230769230771  32.724609375 4.0264423076923075  C 33.408203125 5.408653846153843  33.75 7.271634615384615  33.75 9.615384615384615  C 33.75 11.478365384615385  33.28125 13.401442307692307  32.34375 15.384615384615385  L 37.5 15.384615384615385  C 39.53125000000001 15.384615384615385  41.28906250000001 16.145833333333332  42.7734375 17.66826923076923  Z " fill-rule="nonzero" fill="#000000" stroke="none" transform="matrix(1 0 0 1 736 535 )" />
  </g>
</svg>